<svg width="900" height="620" viewBox="0 0 900 620" fill="none" xmlns="http://www.w3.org/2000/svg">
  <rect width="900" height="620" fill="#050812"/>
  <rect x="44" y="44" width="812" height="532" rx="22" fill="#081827" stroke="#155E75"/>
  <path d="M44 126H856" stroke="#164E63"/>
  <rect x="80" y="82" width="190" height="18" rx="9" fill="#22D3EE"/>
  <rect x="708" y="78" width="112" height="28" rx="8" fill="#34D399" fill-opacity=".22" stroke="#34D399"/>
  <rect x="80" y="160" width="202" height="360" rx="14" fill="#07101D" stroke="#1E3A5F"/>
  <rect x="318" y="160" width="502" height="118" rx="14" fill="#0E2A3A" stroke="#155E75"/>
  <rect x="318" y="310" width="238" height="210" rx="14" fill="#07101D" stroke="#1E3A5F"/>
  <rect x="582" y="310" width="238" height="210" rx="14" fill="#07101D" stroke="#1E3A5F"/>
  <rect x="108" y="198" width="130" height="34" rx="8" fill="#EF4444" fill-opacity=".18"/>
  <rect x="108" y="254" width="130" height="34" rx="8" fill="#F59E0B" fill-opacity=".18"/>
  <rect x="108" y="310" width="130" height="34" rx="8" fill="#22D3EE" fill-opacity=".18"/>
  <rect x="108" y="366" width="130" height="34" rx="8" fill="#34D399" fill-opacity=".15"/>
  <path d="M354 238L418 196L486 218L554 184L628 208L700 176L782 204" stroke="#22D3EE" stroke-width="6" stroke-linecap="round"/>
  <rect x="356" y="352" width="154" height="14" rx="7" fill="#94A3B8" fill-opacity=".48"/>
  <rect x="356" y="398" width="122" height="12" rx="6" fill="#22D3EE" fill-opacity=".7"/>
  <rect x="356" y="442" width="168" height="12" rx="6" fill="#34D399" fill-opacity=".62"/>
  <circle cx="702" cy="414" r="58" stroke="#22D3EE" stroke-width="16" stroke-opacity=".75"/>
  <path d="M702 356A58 58 0 01760 414" stroke="#34D399" stroke-width="16" stroke-linecap="round"/>
</svg>
