<svg width="960" height="720" viewBox="0 0 960 720" fill="none" xmlns="http://www.w3.org/2000/svg" role="img" aria-label="Security operations dashboard visual">
  <rect width="960" height="720" rx="24" fill="#06101D"/>
  <rect x="28" y="28" width="904" height="664" rx="20" fill="#081827" stroke="#155E75"/>
  <path d="M76 132H884" stroke="#1E3A5F" stroke-width="2"/>
  <rect x="76" y="76" width="240" height="28" rx="6" fill="#22D3EE" fill-opacity=".18"/>
  <rect x="742" y="74" width="142" height="32" rx="8" fill="#34D399" fill-opacity=".18" stroke="#34D399" stroke-opacity=".38"/>
  <g opacity=".9">
    <rect x="76" y="170" width="230" height="112" rx="12" fill="#0D2538" stroke="#164E63"/>
    <rect x="338" y="170" width="230" height="112" rx="12" fill="#0D2538" stroke="#164E63"/>
    <rect x="600" y="170" width="284" height="112" rx="12" fill="#0D2538" stroke="#164E63"/>
    <path d="M106 245L150 220L190 235L235 196L276 214" stroke="#22D3EE" stroke-width="5" stroke-linecap="round"/>
    <path d="M368 232L410 215L450 224L493 198L538 207" stroke="#34D399" stroke-width="5" stroke-linecap="round"/>
    <circle cx="648" cy="218" r="34" stroke="#22D3EE" stroke-width="10" stroke-opacity=".8"/>
    <circle cx="742" cy="218" r="34" stroke="#34D399" stroke-width="10" stroke-opacity=".7"/>
    <circle cx="836" cy="218" r="34" stroke="#F59E0B" stroke-width="10" stroke-opacity=".65"/>
  </g>
  <g>
    <rect x="76" y="330" width="808" height="264" rx="14" fill="#071423" stroke="#1E3A5F"/>
    <rect x="104" y="360" width="752" height="38" rx="8" fill="#0F2B42"/>
    <rect x="104" y="420" width="752" height="38" rx="8" fill="#0B2236"/>
    <rect x="104" y="480" width="752" height="38" rx="8" fill="#0B2236"/>
    <rect x="104" y="540" width="752" height="38" rx="8" fill="#0B2236"/>
    <rect x="124" y="373" width="74" height="12" rx="6" fill="#F59E0B"/>
    <rect x="124" y="433" width="74" height="12" rx="6" fill="#22D3EE"/>
    <rect x="124" y="493" width="74" height="12" rx="6" fill="#EF4444"/>
    <rect x="124" y="553" width="74" height="12" rx="6" fill="#34D399"/>
    <rect x="236" y="371" width="210" height="14" rx="7" fill="#94A3B8" fill-opacity=".55"/>
    <rect x="236" y="431" width="260" height="14" rx="7" fill="#94A3B8" fill-opacity=".45"/>
    <rect x="236" y="491" width="230" height="14" rx="7" fill="#94A3B8" fill-opacity=".5"/>
    <rect x="236" y="551" width="282" height="14" rx="7" fill="#94A3B8" fill-opacity=".45"/>
    <rect x="688" y="368" width="132" height="20" rx="10" fill="#22D3EE" fill-opacity=".24"/>
    <rect x="688" y="428" width="132" height="20" rx="10" fill="#34D399" fill-opacity=".2"/>
    <rect x="688" y="488" width="132" height="20" rx="10" fill="#EF4444" fill-opacity=".2"/>
    <rect x="688" y="548" width="132" height="20" rx="10" fill="#22D3EE" fill-opacity=".2"/>
  </g>
  <path d="M72 640H888" stroke="#22D3EE" stroke-opacity=".28"/>
</svg>
